<?xml version="1.0" encoding="utf-8"?>
<svg viewBox="0 0 395.52 163.49401575332539" height="163.49401575332539" width="395.52">
  <g>
    <svg viewBox="0 0 704.0410896337189 291.02575090909085" height="163.49401575332539" width="395.52">
      <g transform="matrix(1,0,0,1,308.52108963371893,108.45841264462807)">
        <svg viewBox="0 0 395.52 74.10892561983471" height="74.10892561983471" width="395.52">
          <g id="textblocktransform">
            <svg viewBox="0 0 395.52 74.10892561983471" height="74.10892561983471" width="395.52" id="textblock">
              <g>
                <svg viewBox="0 0 395.52 74.10892561983471" height="74.10892561983471" width="395.52">
                  <g transform="matrix(1,0,0,1,0,0)">
                    <svg width="395.52" viewBox="3.4200000762939453 -34.939998626708984 189.0500030517578 35.43000030517578" height="74.10892561983471" data-palette-color="#50a060">
                      <path d="M15.5 0L3.42-34.69 8.35-34.69 18.26-4.39 28.17-34.69 32.74-34.69 20.65 0 15.5 0ZM61.62 0L41.28 0 41.28-34.69 61.62-34.69 61.62-31.03 45.43-31.03 45.43-19.7 60.28-19.7 60.28-16.04 45.43-16.04 45.43-3.66 61.62-3.66 61.62 0ZM83.54-21.63L92.06-34.69 96.85-34.69 85.86-18.21 98.19 0 92.82 0 83.08-14.62 73.33 0 68.21 0 80.73-18.12 69.67-34.69 74.7-34.69 83.54-21.63ZM122.99-34.94L122.99-34.94Q127.73-34.94 132.41-33.08L132.41-33.08 131.14-29.64Q126.41-31.27 122.87-31.27L122.87-31.27Q119.94-31.27 117.44-30.11 114.93-28.96 113.29-27.01 111.64-25.07 110.71-22.57 109.78-20.07 109.78-17.33L109.78-17.33Q109.78-14.5 110.77-11.95 111.76-9.4 113.54-7.48 115.32-5.57 117.97-4.44 120.62-3.32 123.77-3.32L123.77-3.32Q127.53-3.32 131.61-4.79L131.61-4.79 132.88-1.71Q127.78 0.49 122.72 0.49L122.72 0.49Q119.6 0.49 116.86-0.42 114.13-1.32 112.09-2.94 110.05-4.57 108.59-6.79 107.12-9.01 106.38-11.68 105.63-14.36 105.63-17.31L105.63-17.31Q105.63-22.31 107.72-26.29 109.81-30.27 113.79-32.6 117.77-34.94 122.99-34.94ZM161.76 0L141.42 0 141.42-34.69 161.76-34.69 161.76-31.03 145.57-31.03 145.57-19.7 160.41-19.7 160.41-16.04 145.57-16.04 145.57-3.66 161.76-3.66 161.76 0ZM172.74 0L172.74-34.69 176.89-34.69 176.89-3.64 192.47-3.64 192.47 0 172.74 0Z" opacity="1" transform="matrix(1,0,0,1,0,0)" fill="#50a060" class="wordmark-text-0" data-fill-palette-color="primary" id="text-0"></path>
                    </svg>
                  </g>
                </svg>
              </g>
            </svg>
          </g>
        </svg>
      </g>
      <g>
        <svg viewBox="0 0 291.02575090909085 291.02575090909085" height="291.02575090909085" width="291.02575090909085">
          <g>
            <svg xmlns="http://www.w3.org/2000/svg" data-name="Layer 1" viewBox="18 18 64 64" x="0" y="0" height="291.02575090909085" width="291.02575090909085" class="icon-icon-0" data-fill-palette-color="accent" id="icon-0">
              <path d="M50 18A32 32 0 1 0 82 50 32 32 0 0 0 50 18Zm9.27 40.24a0.72 0.72 0 0 1 0 1 0.71 0.71 0 0 1-1 0L50 51l-8.24 8.23a0.71 0.71 0 0 1-1 0 0.72 0.72 0 0 1 0-1L49 50l-8.23-8.24a0.73 0.73 0 0 1 1-1L50 49l8.24-8.23a0.73 0.73 0 0 1 1 1L51 50ZM35.9 36.9V63.84a0.73 0.73 0 0 1-0.49 0.69 0.67 0.67 0 0 1-0.24 0 0.74 0.74 0 0 1-0.57-0.27L25 52.37a0.72 0.72 0 0 1 0.11-1 0.74 0.74 0 0 1 1 0.11l8.33 10.31V36.16a0.73 0.73 0 0 1 0.73-0.73H74.46a0.74 0.74 0 1 1 0 1.47Z" fill="#50a060" data-fill-palette-color="accent"></path>
            </svg>
          </g>
        </svg>
      </g>
    </svg>
  </g>
  <defs></defs>
</svg>
